<svg xmlns="http://www.w3.org/2000/svg" width="35" height="35" viewBox="0 0 35 35" fill="none">
<circle cx="17.5" cy="17.5" r="17.5" fill="white" fill-opacity="0.5"/>
<circle cx="17.5" cy="17.5" r="14.5" fill="white" fill-opacity="0.5"/>
<g clip-path="url(#clip0_1591_539)">
<path d="M17.9365 10.0557C18.2881 10.1875 18.543 10.4189 18.71 10.7588L18.8037 10.9521L18.8125 13.5654L18.8184 16.1816L21.4346 16.1875L24.0479 16.1963L24.2529 16.2959C24.5225 16.4277 24.7539 16.6592 24.8857 16.9287C24.9824 17.1279 24.9854 17.1426 24.9854 17.5C24.9854 17.8574 24.9824 17.8721 24.8857 18.0713C24.7539 18.3408 24.5225 18.5723 24.2529 18.7041L24.0479 18.8037L21.4346 18.8125L18.8184 18.8184L18.8125 21.4346L18.8037 24.0479L18.7041 24.2529C18.5723 24.5225 18.3408 24.7539 18.0713 24.8857C17.8721 24.9824 17.8574 24.9854 17.5 24.9854C17.1426 24.9854 17.1279 24.9824 16.9287 24.8857C16.6592 24.7539 16.4277 24.5225 16.2959 24.2529L16.1963 24.0479L16.1875 21.4346L16.1816 18.8184L13.5654 18.8125L10.9521 18.8037L10.7471 18.7041C10.4775 18.5723 10.2461 18.3408 10.1143 18.0713C10.0176 17.8721 10.0146 17.8574 10.0146 17.5C10.0146 17.1426 10.0176 17.1279 10.1143 16.9287C10.2461 16.6592 10.4775 16.4277 10.7471 16.2959L10.9521 16.1963L13.5654 16.1875L16.1816 16.1816L16.1875 13.5654L16.1963 10.9521L16.2959 10.7471C16.4277 10.4775 16.6592 10.2461 16.9287 10.1172C17.1191 10.0234 17.1602 10.0146 17.4561 10.0088C17.7197 10 17.8076 10.0088 17.9365 10.0557Z" fill="#A2A1A1"/>
</g>
<defs>
<clipPath id="clip0_1591_539">
<rect width="15" height="15" fill="white" transform="matrix(-1 0 0 1 25 10)"/>
</clipPath>
</defs>
</svg>
