<svg width="114" height="101" viewBox="0 0 114 101" fill="none" xmlns="http://www.w3.org/2000/svg">
<path d="M77.7274 1.72954C82.6843 -2.10163 89.7921 2.00884 88.9437 8.21598L86.1322 28.7869C85.7001 31.9477 87.4599 35.0008 90.4116 36.2113L109.621 44.0894C115.417 46.4666 115.411 54.6774 109.612 57.0462L90.391 64.8968C87.4376 66.1031 85.6735 69.1537 86.1009 72.3151L88.883 92.89C89.7225 99.0984 82.6088 103.199 77.6574 99.3604L61.2483 86.64C58.727 84.6855 55.203 84.683 52.6789 86.6339L36.2515 99.3307C31.2946 103.162 24.1868 99.0514 25.0352 92.8443L27.8468 72.2733C28.2788 69.1125 26.519 66.0594 23.5674 64.8489L4.35794 56.9708C-1.43838 54.5936 -1.4325 46.3829 4.36723 44.014L23.5879 36.1634C26.5413 34.9571 28.3055 31.9066 27.878 28.7451L25.0959 8.17022C24.2565 1.96187 31.3701 -2.13842 36.3215 1.69986L52.7306 14.4202C55.252 16.3747 58.7759 16.3773 61.3001 14.4263L77.7274 1.72954Z" fill="#C2E9DB"/>
</svg>
